<?xml version="1.0" encoding="UTF-8"?>
<!-- Generated by jsxcad -->
<!DOCTYPE svg PUBLIC "-//W3C//DTD SVG 1.1 Tiny//EN" "http://www.w3.org/Graphics/SVG/1.1/DTD/svg11-tiny.dtd">
<svg baseProfile="tiny" height="111.00000mm" width="110.79512mm" viewBox="-0.00073 -0.00000 110.79512 111.00000" version="1.1" stroke="black" stroke-width=".1" fill="none" xmlns="http://www.w3.org/2000/svg">
<path fill="#000000" stroke="#000000" d="M2.99927 52.22195 L3.82308 45.68172 L5.45088 39.32432 L7.90849 33.11455 L11.05901 27.38580 L14.94357 22.03683 L19.49645 17.19317 L24.58387 12.99339 L30.07141 9.51225 L36.09704 6.67615 L42.29745 4.66048 L48.85986 3.40856 L55.39683 3.00000 L61.93379 3.40856 L68.49620 4.66048 L74.69661 6.67615 L80.72225 9.51225 L86.20978 12.99339 L91.29720 17.19317 L95.85008 22.03683 L99.73464 27.38580 L102.88516 33.11455 L105.34277 39.32432 L106.97057 45.68172 L107.79439 52.22195 L107.79439 58.77805 L106.97057 65.31828 L105.34277 71.67568 L102.88516 77.88545 L99.73464 83.61420 L95.85008 88.96317 L91.29720 93.80683 L86.20978 98.00661 L80.72225 101.48775 L74.69661 104.32385 L68.49620 106.33952 L61.93379 107.59144 L55.39683 108.00000 L48.85986 107.59144 L42.29745 106.33952 L36.09704 104.32385 L30.07141 101.48775 L24.58387 98.00661 L19.49645 93.80683 L14.94357 88.96317 L11.05901 83.61420 L7.90849 77.88545 L5.45088 71.67568 L3.82308 65.31828 L2.99927 58.77805 z M105.29926 58.62195 L105.29926 52.37805 L104.51468 46.14926 L102.96439 40.09459 L100.62381 34.18053 L97.62331 28.72457 L93.92374 23.63031 L89.58766 19.01731 L84.74250 15.01751 L79.51628 11.70214 L73.77757 9.00109 L67.87242 7.08141 L61.62251 5.88911 L55.39683 5.50000 L49.17114 5.88911 L42.92123 7.08141 L37.01608 9.00109 L31.27738 11.70214 L26.05115 15.01751 L21.20599 19.01731 L16.86991 23.63031 L13.17034 28.72457 L10.16984 34.18053 L7.82926 40.09459 L6.27897 46.14926 L5.49439 52.37805 L5.49439 58.62195 L6.27897 64.85074 L7.82926 70.90541 L10.16984 76.81947 L13.17034 82.27543 L16.86991 87.36969 L21.20599 91.98269 L26.05115 95.98249 L31.27738 99.29786 L37.01608 101.99891 L42.92123 103.91859 L49.17114 105.11089 L55.39683 105.50000 L61.62251 105.11089 L67.87242 103.91859 L73.77757 101.99891 L79.51628 99.29786 L84.74250 95.98249 L89.58766 91.98269 L93.92374 87.36969 L97.62331 82.27543 L100.62381 76.81947 L102.96439 70.90541 L104.51468 64.85074 z"/>
<path fill="#000000" stroke="#000000" d="M0.99927 52.22195 L1.03773 51.83171 L1.86154 45.29148 L3.48934 38.93408 L3.60240 38.55962 L6.06001 32.34985 L6.24652 32.00344 L9.39704 26.27468 L13.28159 20.92572 L13.52978 20.62304 L18.08266 15.77938 L23.17008 11.57960 L23.47276 11.33142 L28.96029 7.85028 L29.30670 7.66376 L35.33234 4.82766 L41.53274 2.81200 L41.90721 2.69894 L48.46962 1.44702 L48.85986 1.40856 L55.39683 1.00000 L61.93379 1.40856 L62.32403 1.44702 L68.88644 2.69894 L69.26091 2.81200 L75.46131 4.82766 L81.48695 7.66376 L81.83336 7.85028 L87.32089 11.33142 L87.62357 11.57960 L92.71099 15.77938 L97.26388 20.62304 L97.51206 20.92572 L101.39661 26.27468 L104.54713 32.00344 L104.73364 32.34985 L107.19126 38.55962 L107.30431 38.93408 L108.93211 45.29148 L109.75593 51.83171 L109.79439 52.22195 L109.79439 58.77805 L109.75593 59.16829 L108.93211 65.70852 L107.30431 72.06592 L107.19126 72.44038 L104.73364 78.65015 L104.54713 78.99656 L101.39661 84.72532 L97.51206 90.07428 L97.26388 90.37696 L92.71099 95.22062 L87.62357 99.42040 L87.32089 99.66858 L81.83336 103.14972 L81.48695 103.33624 L75.46131 106.17234 L69.26091 108.18800 L68.88644 108.30106 L62.32403 109.55298 L61.93379 109.59144 L55.39683 110.00000 L48.85986 109.59144 L48.46962 109.55298 L41.90721 108.30106 L41.53274 108.18800 L35.33234 106.17234 L29.30670 103.33624 L28.96029 103.14972 L23.47276 99.66858 L23.17008 99.42040 L18.08266 95.22062 L13.52978 90.37696 L13.28159 90.07428 L9.39704 84.72532 L6.24652 78.99656 L6.06001 78.65015 L3.60240 72.44038 L3.48934 72.06592 L1.86154 65.70852 L1.03773 59.16829 L0.99927 58.77805 z M107.79439 58.77805 L107.79439 52.22195 L106.97057 45.68172 L105.34277 39.32432 L102.88516 33.11455 L99.73464 27.38580 L95.85008 22.03683 L91.29720 17.19317 L86.20978 12.99339 L80.72225 9.51225 L74.69661 6.67615 L68.49620 4.66048 L61.93379 3.40856 L55.39683 3.00000 L48.85986 3.40856 L42.29745 4.66048 L36.09704 6.67615 L30.07141 9.51225 L24.58387 12.99339 L19.49645 17.19317 L14.94357 22.03683 L11.05901 27.38580 L7.90849 33.11455 L5.45088 39.32432 L3.82308 45.68172 L2.99927 52.22195 L2.99927 58.77805 L3.82308 65.31828 L5.45088 71.67568 L7.90849 77.88545 L11.05901 83.61420 L14.94357 88.96317 L19.49645 93.80683 L24.58387 98.00661 L30.07141 101.48775 L36.09704 104.32385 L42.29745 106.33952 L48.85986 107.59144 L55.39683 108.00000 L61.93379 107.59144 L68.49620 106.33952 L74.69661 104.32385 L80.72225 101.48775 L86.20978 98.00661 L91.29720 93.80683 L95.85008 88.96317 L99.73464 83.61420 L102.88516 77.88545 L105.34277 71.67568 L106.97057 65.31828 z"/>
<path fill="#000000" stroke="#000000" d="M-0.00073 52.22195 L0.05641 51.63574 L0.88022 45.09552 L2.50802 38.73812 L2.67945 38.17618 L5.13706 31.96640 L5.41499 31.44789 L8.56551 25.71913 L12.45006 20.37016 L12.82235 19.91562 L17.37524 15.07196 L22.46266 10.87218 L22.91720 10.49989 L28.40474 7.01875 L28.92326 6.74082 L34.94890 3.90472 L41.14930 1.88906 L41.71124 1.71763 L48.27365 0.46570 L48.85986 0.40856 L55.39683 0.00000 L61.93379 0.40856 L62.52000 0.46570 L69.08241 1.71763 L69.64435 1.88906 L75.84475 3.90472 L81.87040 6.74082 L82.38891 7.01875 L87.87645 10.49989 L88.33099 10.87218 L93.41841 15.07196 L97.97130 19.91562 L98.34359 20.37016 L102.22814 25.71913 L105.37866 31.44789 L105.65659 31.96640 L108.11420 38.17618 L108.28563 38.73812 L109.91343 45.09552 L110.73725 51.63574 L110.79439 52.22195 L110.79439 58.77805 L110.73725 59.36426 L109.91343 65.90448 L108.28563 72.26188 L108.11420 72.82382 L105.65659 79.03360 L105.37866 79.55211 L102.22814 85.28087 L98.34359 90.62984 L97.97130 91.08438 L93.41841 95.92804 L88.33099 100.12782 L87.87645 100.50011 L82.38891 103.98125 L81.87040 104.25918 L75.84475 107.09528 L69.64435 109.11094 L69.08241 109.28237 L62.52000 110.53430 L61.93379 110.59144 L55.39683 111.00000 L48.85986 110.59144 L48.27365 110.53430 L41.71124 109.28237 L41.14930 109.11094 L34.94890 107.09528 L28.92326 104.25918 L28.40474 103.98125 L22.91720 100.50011 L22.46266 100.12782 L17.37524 95.92804 L12.82235 91.08438 L12.45006 90.62984 L8.56551 85.28087 L5.41499 79.55211 L5.13706 79.03360 L2.67945 72.82382 L2.50802 72.26188 L0.88022 65.90448 L0.05641 59.36426 L-0.00073 58.77805 z M109.79439 58.77805 L109.79439 52.22195 L109.75593 51.83171 L108.93211 45.29148 L107.30431 38.93408 L107.19126 38.55962 L104.73364 32.34985 L104.54713 32.00344 L101.39661 26.27468 L97.51206 20.92572 L97.26388 20.62304 L92.71099 15.77938 L87.62357 11.57960 L87.32089 11.33142 L81.83336 7.85028 L81.48695 7.66376 L75.46131 4.82766 L69.26091 2.81200 L68.88644 2.69894 L62.32403 1.44702 L61.93379 1.40856 L55.39683 1.00000 L48.85986 1.40856 L48.46962 1.44702 L41.90721 2.69894 L41.53274 2.81200 L35.33234 4.82766 L29.30670 7.66376 L28.96029 7.85028 L23.47276 11.33142 L23.17008 11.57960 L18.08266 15.77938 L13.52978 20.62304 L13.28159 20.92572 L9.39704 26.27468 L6.24652 32.00344 L6.06001 32.34985 L3.60240 38.55962 L3.48934 38.93408 L1.86154 45.29148 L1.03773 51.83171 L0.99927 52.22195 L0.99927 58.77805 L1.03773 59.16829 L1.86154 65.70852 L3.48934 72.06592 L3.60240 72.44038 L6.06001 78.65015 L6.24652 78.99656 L9.39704 84.72532 L13.28159 90.07428 L13.52978 90.37696 L18.08266 95.22062 L23.17008 99.42040 L23.47276 99.66858 L28.96029 103.14972 L29.30670 103.33624 L35.33234 106.17234 L41.53274 108.18800 L41.90721 108.30106 L48.46962 109.55298 L48.85986 109.59144 L55.39683 110.00000 L61.93379 109.59144 L62.32403 109.55298 L68.88644 108.30106 L69.26091 108.18800 L75.46131 106.17234 L81.48695 103.33624 L81.83336 103.14972 L87.32089 99.66858 L87.62357 99.42040 L92.71099 95.22062 L97.26388 90.37696 L97.51206 90.07428 L101.39661 84.72532 L104.54713 78.99656 L104.73364 78.65015 L107.19126 72.44038 L107.30431 72.06592 L108.93211 65.70852 L109.75593 59.16829 z"/>
</svg>