<?xml version="1.0" encoding="UTF-8"?>
<!-- Generated by jsxcad -->
<!DOCTYPE svg PUBLIC "-//W3C//DTD SVG 1.1 Tiny//EN" "http://www.w3.org/Graphics/SVG/1.1/DTD/svg11-tiny.dtd">
<svg baseProfile="tiny" height="111.00000mm" width="111.00000mm" viewBox="-0.00000 -0.00000 111.00000 111.00000" version="1.1" stroke="black" stroke-width=".1" fill="none" xmlns="http://www.w3.org/2000/svg">
<path fill="#000000" stroke="#000000" d="M3.10244 52.22195 L3.40856 48.96304 L3.92625 45.68172 L4.66048 42.40063 L5.55405 39.32432 L6.67615 36.20022 L8.01167 33.11455 L9.51225 30.17458 L11.16219 27.38580 L12.99339 24.68705 L15.04674 22.03683 L17.19317 19.59962 L19.59962 17.19317 L22.03683 15.04674 L24.68705 12.99339 L27.38580 11.16219 L30.17458 9.51225 L33.11455 8.01167 L36.20022 6.67615 L39.32432 5.55405 L42.40063 4.66048 L45.68172 3.92625 L48.96304 3.40856 L52.22195 3.10244 L55.50000 3.00000 L58.77805 3.10244 L62.03696 3.40856 L65.31828 3.92625 L68.59937 4.66048 L71.67568 5.55405 L74.79978 6.67615 L77.88545 8.01167 L80.82542 9.51225 L83.61420 11.16219 L86.31295 12.99339 L88.96317 15.04674 L91.40038 17.19317 L93.80683 19.59962 L95.95326 22.03683 L98.00661 24.68705 L99.83781 27.38580 L101.48775 30.17458 L102.98833 33.11455 L104.32385 36.20022 L105.44595 39.32432 L106.33952 42.40063 L107.07375 45.68172 L107.59144 48.96304 L107.89756 52.22195 L108.00000 55.50000 L107.89756 58.77805 L107.59144 62.03696 L107.07375 65.31828 L106.33952 68.59937 L105.44595 71.67568 L104.32385 74.79978 L102.98833 77.88545 L101.48775 80.82542 L99.83781 83.61420 L98.00661 86.31295 L95.95326 88.96317 L93.80683 91.40038 L91.40038 93.80683 L88.96317 95.95326 L86.31295 98.00661 L83.61420 99.83781 L80.82542 101.48775 L77.88545 102.98833 L74.79978 104.32385 L71.67568 105.44595 L68.59937 106.33952 L65.31828 107.07375 L62.03696 107.59144 L58.77805 107.89756 L55.50000 108.00000 L52.22195 107.89756 L48.96304 107.59144 L45.68172 107.07375 L42.40063 106.33952 L39.32432 105.44595 L36.20022 104.32385 L33.11455 102.98833 L30.17458 101.48775 L27.38580 99.83781 L24.68705 98.00661 L22.03683 95.95326 L19.59962 93.80683 L17.19317 91.40038 L15.04674 88.96317 L12.99339 86.31295 L11.16219 83.61420 L9.51225 80.82542 L8.01167 77.88545 L6.67615 74.79978 L5.55405 71.67568 L4.66048 68.59937 L3.92625 65.31828 L3.40856 62.03696 L3.10244 58.77805 L3.00000 55.50000 z M105.50000 55.50000 L105.40244 52.37805 L105.11089 49.27432 L104.61786 46.14926 L103.91859 43.02440 L103.06757 40.09459 L101.99891 37.11926 L100.72698 34.18053 L99.29786 31.38055 L97.72649 28.72457 L95.98249 26.15433 L94.02691 23.63031 L91.98269 21.30917 L89.69083 19.01731 L87.36969 16.97309 L84.84567 15.01751 L82.27543 13.27351 L79.61945 11.70214 L76.81947 10.27302 L73.88074 9.00109 L70.90541 7.93243 L67.97560 7.08141 L64.85074 6.38214 L61.72568 5.88911 L58.62195 5.59756 L55.50000 5.50000 L52.37805 5.59756 L49.27432 5.88911 L46.14926 6.38214 L43.02440 7.08141 L40.09459 7.93243 L37.11926 9.00109 L34.18053 10.27302 L31.38055 11.70214 L28.72457 13.27351 L26.15433 15.01751 L23.63031 16.97309 L21.30917 19.01731 L19.01731 21.30917 L16.97309 23.63031 L15.01751 26.15433 L13.27351 28.72457 L11.70214 31.38055 L10.27302 34.18053 L9.00109 37.11926 L7.93243 40.09459 L7.08141 43.02440 L6.38214 46.14926 L5.88911 49.27432 L5.59756 52.37805 L5.50000 55.50000 L5.59756 58.62195 L5.88911 61.72568 L6.38214 64.85074 L7.08141 67.97560 L7.93243 70.90541 L9.00109 73.88074 L10.27302 76.81947 L11.70214 79.61945 L13.27351 82.27543 L15.01751 84.84567 L16.97309 87.36969 L19.01731 89.69083 L21.30917 91.98269 L23.63031 94.02691 L26.15433 95.98249 L28.72457 97.72649 L31.38055 99.29786 L34.18053 100.72698 L37.11926 101.99891 L40.09459 103.06757 L43.02440 103.91859 L46.14926 104.61786 L49.27432 105.11089 L52.37805 105.40244 L55.50000 105.50000 L58.62195 105.40244 L61.72568 105.11089 L64.85074 104.61786 L67.97560 103.91859 L70.90541 103.06757 L73.88074 101.99891 L76.81947 100.72698 L79.61945 99.29786 L82.27543 97.72649 L84.84567 95.98249 L87.36969 94.02691 L89.69083 91.98269 L91.98269 89.69083 L94.02691 87.36969 L95.98249 84.84567 L97.72649 82.27543 L99.29786 79.61945 L100.72698 76.81947 L101.99891 73.88074 L103.06757 70.90541 L103.91859 67.97560 L104.61786 64.85074 L105.11089 61.72568 L105.40244 58.62195 z"/>
<path fill="#000000" stroke="#000000" d="M1.10244 52.22195 L1.40856 48.96304 L1.44702 48.57279 L1.96471 45.29148 L2.69894 42.01038 L3.59251 38.93408 L3.70557 38.55962 L4.82766 35.43551 L6.16318 32.34985 L7.66376 29.40987 L7.85028 29.06347 L9.50022 26.27468 L11.33142 23.57594 L13.38477 20.92572 L13.63295 20.62304 L15.77938 18.18583 L18.18583 15.77938 L20.62304 13.63295 L20.92572 13.38477 L23.57594 11.33142 L26.27468 9.50022 L29.06347 7.85028 L29.40987 7.66376 L32.34985 6.16318 L35.43551 4.82766 L38.55962 3.70557 L38.93408 3.59251 L42.01038 2.69894 L45.29148 1.96471 L48.57279 1.44702 L48.96304 1.40856 L52.22195 1.10244 L55.50000 1.00000 L58.77805 1.10244 L62.03696 1.40856 L62.42721 1.44702 L65.70852 1.96471 L68.98962 2.69894 L72.06592 3.59251 L72.44038 3.70557 L75.56449 4.82766 L78.65015 6.16318 L81.59013 7.66376 L81.93653 7.85028 L84.72532 9.50022 L87.42406 11.33142 L90.07428 13.38477 L90.37696 13.63295 L92.81417 15.77938 L95.22062 18.18583 L97.36705 20.62304 L97.61523 20.92572 L99.66858 23.57594 L101.49978 26.27468 L103.14972 29.06347 L103.33624 29.40987 L104.83682 32.34985 L106.17234 35.43551 L107.29443 38.55962 L107.40749 38.93408 L108.30106 42.01038 L109.03529 45.29148 L109.55298 48.57279 L109.59144 48.96304 L109.89756 52.22195 L110.00000 55.50000 L109.89756 58.77805 L109.59144 62.03696 L109.55298 62.42721 L109.03529 65.70852 L108.30106 68.98962 L107.40749 72.06592 L107.29443 72.44038 L106.17234 75.56449 L104.83682 78.65015 L103.33624 81.59013 L103.14972 81.93653 L101.49978 84.72532 L99.66858 87.42406 L97.61523 90.07428 L97.36705 90.37696 L95.22062 92.81417 L92.81417 95.22062 L90.37696 97.36705 L90.07428 97.61523 L87.42406 99.66858 L84.72532 101.49978 L81.93653 103.14972 L81.59013 103.33624 L78.65015 104.83682 L75.56449 106.17234 L72.44038 107.29443 L72.06592 107.40749 L68.98962 108.30106 L65.70852 109.03529 L62.42721 109.55298 L62.03696 109.59144 L58.77805 109.89756 L55.50000 110.00000 L52.22195 109.89756 L48.96304 109.59144 L48.57279 109.55298 L45.29148 109.03529 L42.01038 108.30106 L38.93408 107.40749 L38.55962 107.29443 L35.43551 106.17234 L32.34985 104.83682 L29.40987 103.33624 L29.06347 103.14972 L26.27468 101.49978 L23.57594 99.66858 L20.92572 97.61523 L20.62304 97.36705 L18.18583 95.22062 L15.77938 92.81417 L13.63295 90.37696 L13.38477 90.07428 L11.33142 87.42406 L9.50022 84.72532 L7.85028 81.93653 L7.66376 81.59013 L6.16318 78.65015 L4.82766 75.56449 L3.70557 72.44038 L3.59251 72.06592 L2.69894 68.98962 L1.96471 65.70852 L1.44702 62.42721 L1.40856 62.03696 L1.10244 58.77805 L1.00000 55.50000 z M108.00000 55.50000 L107.89756 52.22195 L107.59144 48.96304 L107.07375 45.68172 L106.33952 42.40063 L105.44595 39.32432 L104.32385 36.20022 L102.98833 33.11455 L101.48775 30.17458 L99.83781 27.38580 L98.00661 24.68705 L95.95326 22.03683 L93.80683 19.59962 L91.40038 17.19317 L88.96317 15.04674 L86.31295 12.99339 L83.61420 11.16219 L80.82542 9.51225 L77.88545 8.01167 L74.79978 6.67615 L71.67568 5.55405 L68.59937 4.66048 L65.31828 3.92625 L62.03696 3.40856 L58.77805 3.10244 L55.50000 3.00000 L52.22195 3.10244 L48.96304 3.40856 L45.68172 3.92625 L42.40063 4.66048 L39.32432 5.55405 L36.20022 6.67615 L33.11455 8.01167 L30.17458 9.51225 L27.38580 11.16219 L24.68705 12.99339 L22.03683 15.04674 L19.59962 17.19317 L17.19317 19.59962 L15.04674 22.03683 L12.99339 24.68705 L11.16219 27.38580 L9.51225 30.17458 L8.01167 33.11455 L6.67615 36.20022 L5.55405 39.32432 L4.66048 42.40063 L3.92625 45.68172 L3.40856 48.96304 L3.10244 52.22195 L3.00000 55.50000 L3.10244 58.77805 L3.40856 62.03696 L3.92625 65.31828 L4.66048 68.59937 L5.55405 71.67568 L6.67615 74.79978 L8.01167 77.88545 L9.51225 80.82542 L11.16219 83.61420 L12.99339 86.31295 L15.04674 88.96317 L17.19317 91.40038 L19.59962 93.80683 L22.03683 95.95326 L24.68705 98.00661 L27.38580 99.83781 L30.17458 101.48775 L33.11455 102.98833 L36.20022 104.32385 L39.32432 105.44595 L42.40063 106.33952 L45.68172 107.07375 L48.96304 107.59144 L52.22195 107.89756 L55.50000 108.00000 L58.77805 107.89756 L62.03696 107.59144 L65.31828 107.07375 L68.59937 106.33952 L71.67568 105.44595 L74.79978 104.32385 L77.88545 102.98833 L80.82542 101.48775 L83.61420 99.83781 L86.31295 98.00661 L88.96317 95.95326 L91.40038 93.80683 L93.80683 91.40038 L95.95326 88.96317 L98.00661 86.31295 L99.83781 83.61420 L101.48775 80.82542 L102.98833 77.88545 L104.32385 74.79978 L105.44595 71.67568 L106.33952 68.59937 L107.07375 65.31828 L107.59144 62.03696 L107.89756 58.77805 z"/>
<path fill="#000000" stroke="#000000" d="M110.89756 58.77805 L110.59144 62.03696 L110.53430 62.62317 L110.01661 65.90448 L109.28237 69.18558 L108.38880 72.26188 L108.21737 72.82382 L107.09528 75.94793 L105.75976 79.03360 L104.25918 81.97357 L103.98125 82.49209 L102.33132 85.28087 L100.50011 87.97962 L98.44677 90.62984 L98.07447 91.08438 L95.92804 93.52159 L93.52159 95.92804 L91.08438 98.07447 L90.62984 98.44677 L87.97962 100.50011 L85.28087 102.33132 L82.49209 103.98125 L81.97357 104.25918 L79.03360 105.75976 L75.94793 107.09528 L72.82382 108.21737 L72.26188 108.38880 L69.18558 109.28237 L65.90448 110.01661 L62.62317 110.53430 L62.03696 110.59144 L58.77805 110.89756 L55.50000 111.00000 L52.22195 110.89756 L48.96304 110.59144 L48.37683 110.53430 L45.09552 110.01661 L41.81442 109.28237 L38.73812 108.38880 L38.17618 108.21737 L35.05207 107.09528 L31.96640 105.75976 L29.02643 104.25918 L28.50791 103.98125 L25.71913 102.33132 L23.02038 100.50011 L20.37016 98.44677 L19.91562 98.07447 L17.47841 95.92804 L15.07196 93.52159 L12.92553 91.08438 L12.55323 90.62984 L10.49989 87.97962 L8.66868 85.28087 L7.01875 82.49209 L6.74082 81.97357 L5.24024 79.03360 L3.90472 75.94793 L2.78263 72.82382 L2.61120 72.26188 L1.71763 69.18558 L0.98339 65.90448 L0.46570 62.62317 L0.40856 62.03696 L0.10244 58.77805 L0.00000 55.50000 L0.10244 52.22195 L0.40856 48.96304 L0.46570 48.37683 L0.98339 45.09552 L1.71763 41.81442 L2.61120 38.73812 L2.78263 38.17618 L3.90472 35.05207 L5.24024 31.96640 L6.74082 29.02643 L7.01875 28.50791 L8.66868 25.71913 L10.49989 23.02038 L12.55323 20.37016 L12.92553 19.91562 L15.07196 17.47841 L17.47841 15.07196 L19.91562 12.92553 L20.37016 12.55323 L23.02038 10.49989 L25.71913 8.66868 L28.50791 7.01875 L29.02643 6.74082 L31.96640 5.24024 L35.05207 3.90472 L38.17618 2.78263 L38.73812 2.61120 L41.81442 1.71763 L45.09552 0.98339 L48.37683 0.46570 L48.96304 0.40856 L52.22195 0.10244 L55.50000 0.00000 L58.77805 0.10244 L62.03696 0.40856 L62.62317 0.46570 L65.90448 0.98339 L69.18558 1.71763 L72.26188 2.61120 L72.82382 2.78263 L75.94793 3.90472 L79.03360 5.24024 L81.97357 6.74082 L82.49209 7.01875 L85.28087 8.66868 L87.97962 10.49989 L90.62984 12.55323 L91.08438 12.92553 L93.52159 15.07196 L95.92804 17.47841 L98.07447 19.91562 L98.44677 20.37016 L100.50011 23.02038 L102.33132 25.71913 L103.98125 28.50791 L104.25918 29.02643 L105.75976 31.96640 L107.09528 35.05207 L108.21737 38.17618 L108.38880 38.73812 L109.28237 41.81442 L110.01661 45.09552 L110.53430 48.37683 L110.59144 48.96304 L110.89756 52.22195 L111.00000 55.50000 z M110.00000 55.50000 L109.89756 52.22195 L109.59144 48.96304 L109.55298 48.57279 L109.03529 45.29148 L108.30106 42.01038 L107.40749 38.93408 L107.29443 38.55962 L106.17234 35.43551 L104.83682 32.34985 L103.33624 29.40987 L103.14972 29.06347 L101.49978 26.27468 L99.66858 23.57594 L97.61523 20.92572 L97.36705 20.62304 L95.22062 18.18583 L92.81417 15.77938 L90.37696 13.63295 L90.07428 13.38477 L87.42406 11.33142 L84.72532 9.50022 L81.93653 7.85028 L81.59013 7.66376 L78.65015 6.16318 L75.56449 4.82766 L72.44038 3.70557 L72.06592 3.59251 L68.98962 2.69894 L65.70852 1.96471 L62.42721 1.44702 L62.03696 1.40856 L58.77805 1.10244 L55.50000 1.00000 L52.22195 1.10244 L48.96304 1.40856 L48.57279 1.44702 L45.29148 1.96471 L42.01038 2.69894 L38.93408 3.59251 L38.55962 3.70557 L35.43551 4.82766 L32.34985 6.16318 L29.40987 7.66376 L29.06347 7.85028 L26.27468 9.50022 L23.57594 11.33142 L20.92572 13.38477 L20.62304 13.63295 L18.18583 15.77938 L15.77938 18.18583 L13.63295 20.62304 L13.38477 20.92572 L11.33142 23.57594 L9.50022 26.27468 L7.85028 29.06347 L7.66376 29.40987 L6.16318 32.34985 L4.82766 35.43551 L3.70557 38.55962 L3.59251 38.93408 L2.69894 42.01038 L1.96471 45.29148 L1.44702 48.57279 L1.40856 48.96304 L1.10244 52.22195 L1.00000 55.50000 L1.10244 58.77805 L1.40856 62.03696 L1.44702 62.42721 L1.96471 65.70852 L2.69894 68.98962 L3.59251 72.06592 L3.70557 72.44038 L4.82766 75.56449 L6.16318 78.65015 L7.66376 81.59013 L7.85028 81.93653 L9.50022 84.72532 L11.33142 87.42406 L13.38477 90.07428 L13.63295 90.37696 L15.77938 92.81417 L18.18583 95.22062 L20.62304 97.36705 L20.92572 97.61523 L23.57594 99.66858 L26.27468 101.49978 L29.06347 103.14972 L29.40987 103.33624 L32.34985 104.83682 L35.43551 106.17234 L38.55962 107.29443 L38.93408 107.40749 L42.01038 108.30106 L45.29148 109.03529 L48.57279 109.55298 L48.96304 109.59144 L52.22195 109.89756 L55.50000 110.00000 L58.77805 109.89756 L62.03696 109.59144 L62.42721 109.55298 L65.70852 109.03529 L68.98962 108.30106 L72.06592 107.40749 L72.44038 107.29443 L75.56449 106.17234 L78.65015 104.83682 L81.59013 103.33624 L81.93653 103.14972 L84.72532 101.49978 L87.42406 99.66858 L90.07428 97.61523 L90.37696 97.36705 L92.81417 95.22062 L95.22062 92.81417 L97.36705 90.37696 L97.61523 90.07428 L99.66858 87.42406 L101.49978 84.72532 L103.14972 81.93653 L103.33624 81.59013 L104.83682 78.65015 L106.17234 75.56449 L107.29443 72.44038 L107.40749 72.06592 L108.30106 68.98962 L109.03529 65.70852 L109.55298 62.42721 L109.59144 62.03696 L109.89756 58.77805 z"/>
</svg>